<mxfile host="app.diagrams.net" modified="2024-06-08T08:16:49.379Z" agent="Mozilla/5.0 (Windows NT 10.0; Win64; x64) AppleWebKit/537.36 (KHTML, like Gecko) Chrome/125.0.0.0 Safari/537.36" version="24.5.2" etag="LRU-2zPy7m7kZfNaau3M" type="github">
  <diagram name="페이지-1" id="AHbeScX0Epccu0i42OI0">
    <mxGraphModel>
      <root>
        <mxCell id="0" />
        <mxCell id="1" parent="0" />
      </root>
    </mxGraphModel>
  </diagram>
</mxfile>
